<?xml version="1.0" standalone="no"?>
<!DOCTYPE svg PUBLIC "-//W3C//DTD SVG 20010904//EN"
 "http://www.w3.org/TR/2001/REC-SVG-20010904/DTD/svg10.dtd">
<svg version="1.0" xmlns="http://www.w3.org/2000/svg"
 width="500.000000pt" height="500.000000pt" viewBox="0 0 500.000000 500.000000"
 preserveAspectRatio="xMidYMid meet">

<g transform="translate(0.000000,500.000000) scale(0.100000,-0.100000)"
fill="#000000" stroke="none">
<path d="M0 4123 c1 -934 1 -930 45 -758 10 39 24 77 31 85 7 9 26 52 42 97
16 44 41 96 56 115 14 19 26 44 26 56 0 12 13 36 29 54 15 18 38 51 50 73 12
22 30 54 41 70 11 17 24 39 29 50 5 11 18 29 30 39 11 11 21 24 21 30 0 6 18
30 40 54 22 24 40 45 40 47 0 2 10 15 22 27 13 13 41 45 63 72 60 73 136 150
168 170 15 9 31 24 34 33 8 20 40 53 51 53 5 0 21 13 36 29 15 16 45 37 67 46
21 10 39 24 39 32 0 7 17 21 38 31 20 9 40 22 44 29 5 6 40 28 80 48 39 20 80
45 91 55 10 10 33 24 51 30 17 6 40 17 51 23 11 5 43 23 72 39 28 15 56 28 63
28 7 0 25 9 41 21 16 11 29 16 29 11 0 -5 31 6 70 24 38 19 77 34 87 34 10 1
32 7 48 15 26 11 -95 13 -847 14 l-878 1 0 -877z"/>
<path d="M3264 4985 c11 -8 26 -15 33 -15 22 0 176 -52 198 -67 11 -7 25 -13
32 -13 15 0 121 -48 143 -65 8 -6 35 -20 60 -30 25 -11 58 -30 74 -42 15 -13
44 -30 63 -38 19 -8 51 -28 71 -45 20 -16 42 -30 48 -30 7 0 14 -4 16 -8 2 -5
25 -26 53 -47 53 -40 79 -62 133 -112 18 -18 39 -33 46 -33 7 0 25 -18 42 -40
16 -22 34 -40 40 -40 5 0 23 -18 40 -40 16 -22 34 -40 41 -40 7 0 16 -6 20
-14 4 -8 31 -40 58 -71 28 -32 57 -67 65 -78 8 -10 23 -27 33 -35 9 -9 17 -22
17 -28 0 -6 11 -23 25 -38 14 -15 25 -33 25 -39 0 -7 13 -28 30 -47 16 -19 29
-43 30 -52 0 -10 11 -25 25 -34 14 -9 25 -25 25 -36 0 -10 10 -29 23 -41 25
-26 40 -56 69 -142 12 -33 24 -62 27 -65 12 -10 31 -50 31 -65 0 -8 4 -15 9
-15 5 0 12 -17 16 -37 4 -21 12 -51 20 -68 7 -16 22 -52 33 -80 l21 -50 1 878
0 877 -877 0 c-774 -1 -876 -2 -859 -15z"/>
<path d="M780 2645 l0 -295 60 0 60 0 0 52 0 53 25 -37 c66 -97 252 -104 324
-12 l19 24 15 -24 c23 -34 95 -66 150 -66 49 0 122 24 115 37 -2 5 -10 23 -17
41 -13 32 -14 32 -61 26 -43 -6 -51 -4 -74 19 -31 32 -35 84 -7 118 16 20 28
23 88 25 l70 1 5 -91 c9 -160 32 -181 199 -170 l107 7 4 102 c4 121 17 145 77
145 20 0 41 -4 46 -8 6 -4 10 -37 10 -73 0 -57 4 -71 29 -103 42 -56 101 -79
191 -74 58 3 80 9 113 31 l42 27 0 -25 c0 -24 2 -25 69 -25 l69 0 7 118 c13
221 13 220 74 40 l54 -158 42 0 43 0 42 128 c24 70 49 140 55 156 l12 29 6
-34 c4 -19 9 -89 13 -156 l7 -123 68 0 c67 0 69 1 69 25 l0 25 20 -20 c45 -45
141 -54 198 -20 26 16 32 17 32 5 0 -12 14 -15 60 -15 l60 0 0 175 0 175 -60
0 c-49 0 -60 -3 -60 -17 0 -15 -2 -14 -20 2 -22 20 -93 30 -143 21 -20 -4 -49
-21 -68 -41 -19 -19 -37 -35 -40 -35 -3 0 -9 42 -13 93 -4 50 -9 116 -13 145
l-6 53 -70 -3 -70 -3 -60 -159 c-34 -87 -63 -155 -64 -150 -2 5 -30 77 -62
159 l-58 150 -63 3 c-35 2 -67 -1 -71 -5 -5 -5 -14 -67 -20 -138 -14 -162 -14
-164 -39 -132 -32 40 -98 67 -166 67 -58 0 -134 -25 -148 -49 -13 -20 -27 -12
-16 9 24 44 -83 56 -144 15 -34 -23 -36 -23 -36 -5 0 18 -7 20 -90 20 l-90 0
0 65 0 65 -65 0 -65 0 0 -65 0 -65 -79 6 c-70 6 -85 4 -126 -16 -25 -12 -56
-35 -67 -51 l-21 -29 -19 31 c-39 64 -162 88 -243 49 -23 -11 -54 -37 -69 -58
l-26 -37 0 173 0 172 -60 0 -60 0 0 -295z m351 -34 c13 -11 21 -22 18 -26 -4
-3 -35 -5 -70 -3 l-64 3 23 23 c27 27 62 28 93 3z m609 -75 c0 -66 -2 -75 -20
-81 -33 -11 -40 3 -40 78 l0 73 30 2 30 2 0 -74z m519 38 c12 -15 21 -37 21
-49 0 -12 -9 -34 -21 -49 -16 -20 -29 -26 -59 -26 -30 0 -43 6 -59 26 -12 15
-21 37 -21 49 0 12 9 34 21 49 16 20 29 26 59 26 30 0 43 -6 59 -26z m970 0
c12 -15 21 -37 21 -49 0 -12 -9 -34 -21 -49 -16 -20 -29 -26 -59 -26 -30 0
-43 6 -59 26 -12 15 -21 37 -21 49 0 12 9 34 21 49 16 20 29 26 59 26 30 0 43
-6 59 -26z m-1983 -100 c10 -31 9 -34 -5 -28 -67 28 -70 28 -89 11 -39 -36
-132 -9 -132 38 0 12 19 15 108 15 l107 0 11 -36z"/>
<path d="M3660 2826 l0 -113 -50 -5 c-34 -4 -59 -13 -75 -28 l-25 -23 0 21 c0
20 -5 22 -65 22 l-65 0 0 -175 0 -175 65 0 65 0 0 103 c0 135 10 152 86 144
36 -4 54 -2 58 6 2 7 5 -48 5 -120 l1 -133 65 0 65 0 0 67 0 67 68 -67 68 -67
79 0 80 0 -93 93 -92 92 82 83 83 82 -80 0 -79 0 -58 -57 -58 -57 0 177 0 177
-65 0 -65 0 0 -114z"/>
<path d="M446 2912 c-3 -3 -6 -131 -6 -284 l0 -278 165 0 165 0 0 55 0 54 -92
3 -93 3 -3 53 -3 52 90 0 91 0 0 60 0 60 -90 0 -90 0 0 55 0 55 95 0 95 0 0
55 0 55 -97 2 c-54 1 -126 2 -160 4 -34 1 -64 0 -67 -4z"/>
<path d="M4402 2768 c2 -61 1 -63 -25 -66 -20 -2 -27 -9 -27 -24 0 -19 -2 -20
-17 -6 -45 38 -138 49 -201 23 -75 -32 -115 -90 -115 -170 0 -28 7 -64 16 -80
60 -116 232 -141 330 -48 15 15 27 30 27 33 0 4 -18 15 -41 25 -38 18 -42 18
-69 2 -29 -17 -86 -22 -106 -9 -16 10 -34 48 -27 56 3 3 61 6 129 6 l122 0 7
-42 c10 -66 25 -98 56 -113 32 -17 96 -19 133 -6 l25 10 -17 50 c-14 45 -18
50 -38 45 -29 -7 -37 17 -32 97 3 53 4 54 36 57 31 3 32 5 32 48 0 44 0 44
-35 44 l-35 0 0 65 0 65 -65 0 -64 0 1 -62z m-148 -154 c27 -27 18 -34 -44
-34 -33 0 -60 4 -60 9 0 19 32 41 60 41 16 0 36 -7 44 -16z m143 -41 c-3 -10
-5 -4 -5 12 0 17 2 24 5 18 2 -7 2 -21 0 -30z"/>
<path d="M1851 2218 c1 -29 4 -43 6 -30 3 14 12 22 24 22 10 0 19 5 19 10 0 6
-9 10 -20 10 -11 0 -20 5 -20 10 0 6 11 10 25 10 14 0 25 5 25 10 0 6 -13 10
-30 10 -30 0 -30 -1 -29 -52z"/>
<path d="M2467 2264 c-16 -17 -6 -45 20 -55 20 -7 24 -12 14 -18 -7 -5 -23 -6
-35 -3 -16 4 -18 2 -10 -7 6 -7 24 -11 40 -9 36 4 40 38 7 53 -29 12 -30 29
-2 22 13 -3 19 -1 16 6 -4 14 -39 21 -50 11z"/>
<path d="M2630 2220 c0 -49 1 -50 30 -50 17 0 30 5 30 10 0 6 -9 10 -20 10
-17 0 -20 7 -20 40 0 22 -4 40 -10 40 -5 0 -10 -22 -10 -50z"/>
<path d="M2797 2263 c-11 -10 -8 -93 3 -93 6 0 10 23 10 50 0 51 -1 55 -13 43z"/>
<path d="M2920 2220 c0 -49 1 -50 30 -50 17 0 30 5 30 10 0 6 -9 10 -20 10
-11 0 -20 5 -20 10 0 6 9 10 20 10 11 0 20 5 20 10 0 6 -9 10 -20 10 -11 0
-20 5 -20 10 0 6 9 10 20 10 11 0 20 5 20 10 0 6 -13 10 -30 10 -29 0 -30 -1
-30 -50z"/>
<path d="M3080 2260 c0 -5 7 -10 15 -10 11 0 15 -11 15 -40 0 -22 5 -40 10
-40 6 0 10 18 10 40 0 29 4 40 15 40 8 0 15 5 15 10 0 6 -18 10 -40 10 -22 0
-40 -4 -40 -10z"/>
<path d="M2022 2241 c-8 -5 -12 -21 -10 -37 3 -25 7 -29 33 -29 24 0 31 5 33
24 3 15 -3 30 -14 38 -21 15 -24 16 -42 4z m38 -29 c0 -10 -3 -22 -7 -25 -10
-11 -32 13 -26 29 8 20 33 17 33 -4z"/>
<path d="M2203 2242 c-19 -3 -23 -10 -23 -38 0 -19 5 -34 10 -34 6 0 10 11 10
25 0 13 8 28 17 34 22 12 15 18 -14 13z"/>
<path d="M0 882 l0 -882 893 1 c730 1 881 4 831 14 -34 6 -77 21 -95 33 -19
11 -51 23 -72 27 -20 4 -48 16 -61 26 -13 11 -32 19 -43 19 -10 0 -29 9 -43
20 -14 11 -31 20 -38 20 -8 0 -39 14 -70 32 -32 17 -74 39 -94 50 -20 10 -40
22 -43 28 -3 5 -15 10 -26 10 -10 0 -19 6 -19 13 0 7 -16 19 -36 26 -19 7 -50
25 -67 40 -18 14 -44 33 -58 40 -15 7 -37 26 -48 42 -12 16 -28 29 -35 29 -8
0 -29 15 -48 33 -18 17 -51 46 -73 63 -22 18 -53 50 -70 73 -16 22 -35 41 -41
41 -7 0 -19 10 -27 23 -8 12 -36 45 -61 72 -25 28 -45 53 -46 58 0 4 -7 7 -15
7 -8 0 -15 6 -15 14 0 7 -18 33 -40 57 -22 24 -40 48 -40 54 0 6 -18 30 -40
54 -22 24 -40 51 -40 61 0 9 -11 27 -25 40 -14 13 -25 31 -25 41 0 9 -6 21
-13 28 -8 6 -27 37 -42 68 -16 32 -35 64 -41 70 -7 7 -15 26 -19 43 -4 16 -10
30 -15 30 -4 0 -11 12 -14 28 -4 15 -15 45 -25 67 -33 72 -50 119 -66 185 -9
36 -21 69 -26 75 -5 5 -9 -334 -9 -873z"/>
<path d="M4981 1733 c-7 -15 -16 -45 -21 -67 -12 -57 -59 -180 -71 -184 -5 -2
-9 -10 -9 -18 0 -7 -8 -28 -19 -47 -10 -18 -22 -48 -26 -65 -3 -18 -11 -32
-16 -32 -5 0 -9 -6 -9 -13 0 -8 -9 -22 -20 -32 -12 -10 -18 -25 -15 -33 3 -7
-8 -30 -25 -50 -16 -20 -30 -45 -30 -54 0 -10 -5 -18 -11 -18 -5 0 -17 -16
-25 -35 -8 -20 -21 -38 -29 -42 -8 -3 -15 -12 -15 -20 0 -8 -13 -28 -29 -45
-17 -18 -36 -43 -43 -57 -7 -14 -22 -34 -33 -46 -11 -11 -38 -42 -60 -69 -58
-71 -231 -246 -243 -246 -6 0 -19 -13 -28 -30 -10 -16 -29 -34 -43 -40 -14 -6
-45 -28 -69 -50 -23 -22 -54 -43 -67 -46 -14 -3 -25 -12 -25 -18 0 -7 -19 -23
-42 -37 -24 -13 -52 -29 -63 -36 -11 -7 -26 -15 -34 -19 -8 -4 -22 -15 -32
-25 -10 -10 -34 -22 -55 -28 -20 -6 -46 -19 -58 -29 -12 -10 -41 -26 -66 -36
-25 -10 -58 -24 -73 -32 -16 -8 -35 -14 -43 -14 -8 0 -14 -4 -14 -9 0 -5 -10
-13 -22 -16 -13 -4 -50 -17 -83 -30 -33 -12 -89 -32 -125 -43 l-65 -21 888 0
887 -1 0 880 c0 484 -2 880 -3 880 -2 0 -9 -12 -16 -27z"/>
<path d="M2330 726 c0 -7 10 -21 23 -30 l22 -17 -28 6 c-19 4 -26 2 -22 -5 8
-14 42 -13 51 1 4 7 -4 20 -17 31 l-24 20 23 -5 c12 -3 22 -1 22 4 0 5 -11 9
-25 9 -15 0 -25 -6 -25 -14z"/>
<path d="M2400 705 c0 -19 5 -35 10 -35 6 0 10 16 10 35 0 19 -4 35 -10 35 -5
0 -10 -16 -10 -35z"/>
<path d="M2440 705 c0 -19 5 -35 10 -35 6 0 10 14 10 30 0 20 5 30 15 30 10 0
15 -10 15 -32 0 -22 3 -28 9 -20 4 7 6 24 3 38 -3 19 -11 24 -33 24 -26 0 -29
-3 -29 -35z"/>
<path d="M2534 726 c-11 -29 1 -51 29 -54 15 -2 27 1 27 6 0 6 -9 8 -20 5 -19
-5 -21 -2 -24 29 -1 7 10 15 24 19 l25 7 -28 1 c-16 1 -30 -5 -33 -13z"/>
<path d="M2614 726 c-11 -29 1 -51 29 -54 15 -2 27 2 27 8 0 7 -8 9 -19 5 -11
-3 -22 -1 -26 5 -4 6 4 10 18 10 30 0 40 10 26 27 -15 17 -48 17 -55 -1z m36
-6 c0 -5 -4 -10 -10 -10 -5 0 -10 5 -10 10 0 6 5 10 10 10 6 0 10 -4 10 -10z"/>
<path d="M2347 633 c-13 -13 -7 -21 13 -16 13 4 20 0 20 -9 0 -8 -9 -23 -20
-33 -28 -26 -25 -35 13 -34 17 1 24 3 15 6 -22 6 -22 8 -2 38 13 20 14 28 4
40 -13 16 -32 19 -43 8z"/>
<path d="M2434 632 c-33 -23 -20 -96 17 -90 32 4 45 31 33 65 -10 28 -30 39
-50 25z m34 -44 c-3 -36 -15 -42 -31 -17 -13 21 -2 49 18 49 12 0 15 -8 13
-32z"/>
<path d="M2523 633 c-21 -8 -15 -22 7 -16 26 7 26 -11 -1 -48 l-20 -29 33 1
c18 1 25 3 16 6 -15 4 -15 6 0 32 24 43 6 71 -35 54z"/>
<path d="M2617 607 c-20 -27 -24 -37 -13 -37 8 0 21 -6 29 -14 11 -12 15 -11
25 5 7 10 8 19 3 19 -5 0 -11 14 -13 32 l-3 32 -28 -37z m23 -17 c0 -5 -5 -10
-11 -10 -5 0 -7 5 -4 10 3 6 8 10 11 10 2 0 4 -4 4 -10z"/>
</g>
</svg>
