<?xml version="1.0" encoding="UTF-8"?>
<svg version="1.1" xmlns="http://www.w3.org/2000/svg" width="721" height="241">
<path d="M0 0 C237.93 0 475.86 0 721 0 C721 79.53 721 159.06 721 241 C483.07 241 245.14 241 0 241 C0 161.47 0 81.94 0 0 Z " fill="#182524" transform="translate(0,0)"/>
<path d="M0 0 C1.11084961 0.00628418 1.11084961 0.00628418 2.24414062 0.01269531 C8.40769112 0.13875574 13.89918518 1.13017419 19.6875 3.3125 C20.85152344 3.74755859 20.85152344 3.74755859 22.0390625 4.19140625 C37.75858421 10.64667376 47.90633299 22.03563971 55.078125 37.265625 C59.99732978 50.49897871 59.79191739 66.9144701 54.37646484 79.95263672 C47.66609769 94.57233056 36.58515819 105.32797064 21.6875 111.3125 C7.00427167 116.69914719 -6.69422099 116.66386793 -21.3125 111.3125 C-36.46834025 104.2826958 -47.71566879 92.54648544 -53.55859375 76.82421875 C-58.12187917 61.62114867 -58.16281787 45.78579178 -50.8046875 31.35546875 C-41.84428995 16.45620305 -29.32217521 6.07988511 -12.5625 1.2265625 C-8.34723801 0.21178627 -4.32416927 -0.03381365 0 0 Z " fill="#192625" transform="translate(112.3125,65.6875)"/>
<path d="M0 0 C18.48 0 36.96 0 56 0 C56 18.81 56 37.62 56 57 C56.99 57 57.98 57 59 57 C59 58.32 59 59.64 59 61 C38.54 61 18.08 61 -3 61 C-2.67 59.68 -2.34 58.36 -2 57 C-1.34 57 -0.68 57 0 57 C0 38.19 0 19.38 0 0 Z " fill="#EBDCD8" transform="translate(85,93)"/>
<path d="M0 0 C13.04029231 9.97989624 23.11789051 23.54226157 26 40 C26.26461763 43.27673986 26.28764035 46.52649717 26.25 49.8125 C26.24033203 50.69905273 26.23066406 51.58560547 26.22070312 52.49902344 C25.90306548 69.81027534 20.19889555 84.15708174 7.7890625 96.4453125 C-4.24632434 107.4693223 -17.85674989 113.40543167 -34.1875 113.3125 C-35.21399658 113.30686035 -36.24049316 113.3012207 -37.2980957 113.29541016 C-55.80859372 112.99872519 -70.70381684 105.74202518 -83.625 92.5 C-95.61630941 78.20157405 -99.15583648 60.1594753 -98 42 C-95.86796995 26.49761203 -87.21482932 12.58077325 -75.25390625 2.65625 C-52.43759746 -14.10998038 -23.72404197 -16.13473887 0 0 Z M-80 14 C-84.19137742 19.56810723 -87.61396155 25.43839426 -90 32 C-90.27714844 32.66515625 -90.55429688 33.3303125 -90.83984375 34.015625 C-95.90717943 47.74647008 -93.62199711 62.86317258 -88 76 C-85.94421501 79.91077238 -83.6529773 83.4705927 -81 87 C-80.505 87.66515625 -80.01 88.3303125 -79.5 89.015625 C-69.54997872 101.4531516 -54.37407374 107.60267674 -38.88671875 109.3515625 C-23.10350048 110.09846449 -8.64701247 103.81287887 3.1875 93.75 C14.42210188 83.14833344 21.07114418 70.17001217 21.61108398 54.68554688 C21.69772405 36.79817291 16.61496648 23.42604458 4.29296875 10.2578125 C-7.43473124 -1.29007607 -22.00754453 -6.28545854 -38.27392578 -6.31689453 C-54.73910904 -6.03331387 -68.98772689 2.09853714 -80 14 Z " fill="#E3D5D2" transform="translate(149,72)"/>
<path d="M0 0 C5.28 0 10.56 0 16 0 C16.66 2.041875 17.32 4.08375 18 6.1875 C21.30884385 16.25598752 25.17024352 26.12085553 29 36 C29.37511719 34.83984375 29.75023437 33.6796875 30.13671875 32.484375 C32.78982538 24.36037953 35.49603968 16.37769857 39.01953125 8.578125 C40.28479235 5.50587424 40.28479235 5.50587424 41 0 C46.61 0 52.22 0 58 0 C58 1.32 58 2.64 58 4 C56.35 4 54.7 4 53 4 C53 17.53 53 31.06 53 45 C54.65 45 56.3 45 58 45 C58 45.99 58 46.98 58 48 C52.06 48 46.12 48 40 48 C40 47.01 40 46.02 40 45 C41.65 45 43.3 45 45 45 C44.67 32.79 44.34 20.58 44 8 C42.35 12.95 40.7 17.9 39 23 C37.81822335 26.18356158 36.62734418 29.34594799 35.375 32.5 C35.08882813 33.2321875 34.80265625 33.964375 34.5078125 34.71875 C32.75392092 39.18320129 30.91039086 43.60031195 29 48 C27.68 48 26.36 48 25 48 C20.38 35.46 15.76 22.92 11 10 C10.67 21.55 10.34 33.1 10 45 C11.65 45 13.3 45 15 45 C15 45.99 15 46.98 15 48 C10.05 48 5.1 48 0 48 C0 47.01 0 46.02 0 45 C1.65 45 3.3 45 5 45 C5 31.47 5 17.94 5 4 C3.35 4 1.7 4 0 4 C0 2.68 0 1.36 0 0 Z " fill="#D0DFD5" transform="translate(422,101)"/>
<path d="M0 0 C4.45146251 2.18526342 7.18885145 4.9394521 10 9 C11.78468529 14.35405587 12.04514547 20.79640194 10.28125 26.203125 C7.87608231 30.66432313 4.49965356 33.75017322 0 36 C-5.25575165 36.5238576 -9.64526095 36.66505372 -14.4375 34.3125 C-18.83777347 30.3415215 -21.74437421 27.13874944 -22.23828125 21.07421875 C-22.43757421 11.98016623 -22.43757421 11.98016623 -20.4375 7.5 C-14.08715422 0.98682484 -9.39243847 -1.53230114 0 0 Z " fill="#D8E7DD" transform="translate(406,114)"/>
<path d="M0 0 C5.94 0 11.88 0 18 0 C18 6.27 18 12.54 18 19 C18.66 19 19.32 19 20 19 C20 12.73 20 6.46 20 0 C26.27 0 32.54 0 39 0 C39 7.59 39 15.18 39 23 C26.13 23 13.26 23 0 23 C0 15.41 0 7.82 0 0 Z " fill="#1E2A29" transform="translate(94,126)"/>
<path d="M0 0 C11.55 0 23.1 0 35 0 C35 3.63 35 7.26 35 11 C33.68 11 32.36 11 31 11 C30.67 8.69 30.34 6.38 30 4 C24.39 4 18.78 4 13 4 C13 9.94 13 15.88 13 22 C16.63 21.67 20.26 21.34 24 21 C24.33 19.35 24.66 17.7 25 16 C26.32 16 27.64 16 29 16 C29 20.95 29 25.9 29 31 C28.01 31 27.02 31 26 31 C25.67 29.02 25.34 27.04 25 25 C21.04 25 17.08 25 13 25 C13 31.6 13 38.2 13 45 C19.27 45 25.54 45 32 45 C32.33 42.36 32.66 39.72 33 37 C34.98 36.505 34.98 36.505 37 36 C37 39.96 37 43.92 37 48 C25.12 48 13.24 48 1 48 C1 47.01 1 46.02 1 45 C2.98 44.505 2.98 44.505 5 44 C5 31.13 5 18.26 5 5 C3.35 4.67 1.7 4.34 0 4 C0 2.68 0 1.36 0 0 Z " fill="#DAE9DE" transform="translate(200,101)"/>
<path d="M0 0 C2.1875 1.625 2.1875 1.625 4.1875 3.625 C4.50634766 6.23876953 4.50634766 6.23876953 4.6015625 9.5078125 C4.64023437 10.67441406 4.67890625 11.84101562 4.71875 13.04296875 C4.7496875 14.26628906 4.780625 15.48960937 4.8125 16.75 C4.85117187 17.98105469 4.88984375 19.21210938 4.9296875 20.48046875 C5.0241999 23.52849376 5.10975494 26.57650862 5.1875 29.625 C6.5075 29.955 7.8275 30.285 9.1875 30.625 C9.1875 31.615 9.1875 32.605 9.1875 33.625 C5.5575 33.625 1.9275 33.625 -1.8125 33.625 C-2.1425 32.635 -2.4725 31.645 -2.8125 30.625 C-3.8025 31.285 -4.7925 31.945 -5.8125 32.625 C-10.10083037 35.04695177 -12.92475068 35.334512 -17.8125 34.625 C-20.96804267 32.58704536 -22.4797675 31.15775134 -23.2890625 27.4296875 C-23.54124194 23.40808902 -23.44317129 21.35122755 -20.75 18.25 C-14.92275074 15.02641531 -9.26403256 13.09640216 -2.8125 11.625 C-2.73822162 8.28247276 -2.74703047 5.8214086 -3.8125 2.625 C-7.1125 2.625 -10.4125 2.625 -13.8125 2.625 C-13.8125 4.605 -13.8125 6.585 -13.8125 8.625 C-16.1225 8.625 -18.4325 8.625 -20.8125 8.625 C-21.16911218 4.22678306 -21.16911218 4.22678306 -19.8125 1.9375 C-14.28133644 -1.69232608 -5.96969098 -2.91851559 0 0 Z " fill="#D3E2D7" transform="translate(507.8125,115.375)"/>
<path d="M0 0 C0 11.22 0 22.44 0 34 C5.28393699 29.65882783 5.28393699 29.65882783 9.375 24.6875 C10.12910156 23.64142578 10.12910156 23.64142578 10.8984375 22.57421875 C11.26195312 22.05472656 11.62546875 21.53523438 12 21 C11.01 21 10.02 21 9 21 C9 20.01 9 19.02 9 18 C13.62 18 18.24 18 23 18 C23 18.99 23 19.98 23 21 C22.154375 21.185625 21.30875 21.37125 20.4375 21.5625 C15.90490954 23.45794692 13.25312328 26.40039022 10 30 C11.51738219 34.34003939 13.78627915 37.98535693 16.375 41.75 C16.76171875 42.33910156 17.1484375 42.92820313 17.546875 43.53515625 C19.83673053 46.90346959 19.83673053 46.90346959 23.2890625 48.890625 C23.85367188 48.92671875 24.41828125 48.9628125 25 49 C25 49.99 25 50.98 25 52 C21.04 52 17.08 52 13 52 C12.608125 50.989375 12.21625 49.97875 11.8125 48.9375 C10.60122224 46.07236221 9.16117596 43.68741408 7.3125 41.1875 C5 38 5 38 5 36 C3.35 36 1.7 36 0 36 C0.33 39.96 0.66 43.92 1 48 C2.32 48.33 3.64 48.66 5 49 C5 49.99 5 50.98 5 52 C-0.28 52 -5.56 52 -11 52 C-11 51.01 -11 50.02 -11 49 C-9.02 48.505 -9.02 48.505 -7 48 C-6.67 33.81 -6.34 19.62 -6 5 C-7.98 5 -9.96 5 -12 5 C-12 4.01 -12 3.02 -12 2 C-7.52247755 0.29427716 -5.01632918 0 0 0 Z " fill="#DBEADF" transform="translate(559,97)"/>
<path d="M0 0 C3.39366345 2.31386145 4.93764821 4.18059058 6.75 7.875 C6.75 10.515 6.75 13.155 6.75 15.875 C-0.84 15.875 -8.43 15.875 -16.25 15.875 C-14.55186347 23.46446516 -14.55186347 23.46446516 -10.25 28.875 C-7.12143524 30.43928238 -4.72287869 30.15507086 -1.25 29.875 C1.54827632 28.75666618 4.14726245 27.38932003 6.75 25.875 C6.75 27.525 6.75 29.175 6.75 30.875 C0.51468221 33.79088974 -5.28934764 36.22179289 -12.25 34.875 C-15.625 33.0625 -15.625 33.0625 -18.25 30.875 C-18.8275 30.400625 -19.405 29.92625 -20 29.4375 C-24.27632194 24.09209758 -23.9456368 17.35043391 -23.25 10.875 C-21.6366535 5.97391496 -18.5081659 2.71377727 -14.25 -0.125 C-9.23972375 -1.79509208 -4.91956683 -1.70292698 0 0 Z " fill="#D1E0D6" transform="translate(610.25,115.125)"/>
<path d="M0 0 C3.43087554 2.01162847 6.20989367 4.41978733 8 8 C8 10.97 8 13.94 8 17 C0.74 17 -6.52 17 -14 17 C-12.74792673 25.18330956 -12.74792673 25.18330956 -8 30 C-5.16870331 31.41564834 -3.14918438 31.24224495 0 31 C2.0302589 30.06295743 4.03696582 29.07074592 6 28 C6.66 28 7.32 28 8 28 C7.9375 30.3125 7.9375 30.3125 7 33 C1.58305635 36.34236948 -3.73279624 36.75620806 -10 36 C-14.73829769 34.33282118 -17.2011938 32.14637955 -20 28 C-21.90024779 22.29925664 -22.30326033 14.5484811 -20.2109375 8.8515625 C-19.1875 7.3125 -19.1875 7.3125 -17 5 C-16.2575 4.13375 -16.2575 4.13375 -15.5 3.25 C-10.89138701 -0.59051083 -5.77546109 -1.04525216 0 0 Z " fill="#D3E2D7" transform="translate(285,114)"/>
<path d="M0 0 C3.32987061 2.18163937 4.10779268 5.22527672 5 9 C5.76013546 15.77314728 5.10862838 21.39357732 1 27 C-2.27057143 29.18038095 -3.20519469 29.63246755 -7 29 C-11.40529386 25.4142957 -13.57315463 22.00589 -14.37109375 16.38671875 C-14.53623999 9.67400984 -13.5154085 5.11746296 -9 0 C-5.85000502 -1.57499749 -3.36459118 -0.70833498 0 0 Z " fill="#1D2A29" transform="translate(405,118)"/>
<path d="M0 0 C3.5625 1.625 3.5625 1.625 6 4 C6.4375 7.1875 6.4375 7.1875 6 10 C5 11 5 11 1.9375 11.0625 C0.968125 11.041875 -0.00125 11.02125 -1 11 C-1 8.69 -1 6.38 -1 4 C-6.02677075 3.54510368 -6.02677075 3.54510368 -10.375 5.75 C-13.9531016 10.70429453 -13.64607716 17.11729747 -13 23 C-11.80431102 25.80443415 -10.16525241 27.83474759 -8 30 C-2.96238984 30.31718286 2.09961113 30.30677037 7 29 C7 30.32 7 31.64 7 33 C1.30297912 35.97235872 -3.58636351 36.90739552 -10 36 C-14.2919267 34.62919451 -17.08545634 32.29701646 -19.375 28.4375 C-21.9029796 23.08985085 -22.70125937 18.85356776 -22 13 C-19.98639277 7.38597549 -16.20526715 3.84203112 -11.1171875 0.91796875 C-7.45898117 -0.66815392 -3.90639341 -0.53974348 0 0 Z " fill="#D4E3D8" transform="translate(320,114)"/>
<path d="M0 0 C0 16.17 0 32.34 0 49 C1.65 49 3.3 49 5 49 C5 49.99 5 50.98 5 52 C-0.61 52 -6.22 52 -12 52 C-12 51.01 -12 50.02 -12 49 C-10.35 49 -8.7 49 -7 49 C-7 34.48 -7 19.96 -7 5 C-8.65 5 -10.3 5 -12 5 C-12 4.01 -12 3.02 -12 2 C-7.69214025 0.64851459 -4.58042408 0 0 0 Z " fill="#D6E5DB" transform="translate(254,97)"/>
<path d="M0 0 C1 1 1 1 1.0625 4.5625 C1.041875 5.696875 1.02125 6.83125 1 8 C0.39671875 7.89300781 -0.2065625 7.78601563 -0.828125 7.67578125 C-1.62734375 7.55589844 -2.4265625 7.43601562 -3.25 7.3125 C-4.03890625 7.18488281 -4.8278125 7.05726562 -5.640625 6.92578125 C-8.74160929 7.02332877 -9.77850913 7.86801134 -12 10 C-12.63970595 12.40238852 -12.63970595 12.40238852 -12.609375 15.10546875 C-12.64160156 16.08837891 -12.67382812 17.07128906 -12.70703125 18.08398438 C-12.72830078 19.62022461 -12.72830078 19.62022461 -12.75 21.1875 C-12.77964844 22.22326172 -12.80929687 23.25902344 -12.83984375 24.32617188 C-12.91057245 26.88419312 -12.96325257 29.44130158 -13 32 C-11.02 32 -9.04 32 -7 32 C-7 32.99 -7 33.98 -7 35 C-12.94 35 -18.88 35 -25 35 C-25 34.01 -25 33.02 -25 32 C-23.35 32 -21.7 32 -20 32 C-20 23.42 -20 14.84 -20 6 C-21.65 6 -23.3 6 -25 6 C-25 5.01 -25 4.02 -25 3 C-20.82262526 1.40861915 -17.46839215 0.78721942 -13 1 C-12.67 2.32 -12.34 3.64 -12 5 C-11.13375 4.175 -10.2675 3.35 -9.375 2.5 C-6.24802685 -0.12933135 -4.1269047 -0.57584717 0 0 Z " fill="#D5E4DA" transform="translate(545,114)"/>
<path d="M0 0 C1 1 1 1 1.0625 4.5625 C1.041875 5.696875 1.02125 6.83125 1 8 C-0.953125 7.64192708 -2.90625 7.28385417 -4.859375 6.92578125 C-7.81031489 7.02809486 -8.88046536 7.98046392 -11 10 C-11.63970595 12.40238852 -11.63970595 12.40238852 -11.609375 15.10546875 C-11.64160156 16.08837891 -11.67382812 17.07128906 -11.70703125 18.08398438 C-11.72830078 19.62022461 -11.72830078 19.62022461 -11.75 21.1875 C-11.77964844 22.22326172 -11.80929687 23.25902344 -11.83984375 24.32617188 C-11.91057245 26.88419312 -11.96325257 29.44130158 -12 32 C-10.02 32 -8.04 32 -6 32 C-6 32.99 -6 33.98 -6 35 C-11.94 35 -17.88 35 -24 35 C-24 34.01 -24 33.02 -24 32 C-22.35 32 -20.7 32 -19 32 C-19 23.42 -19 14.84 -19 6 C-20.65 6 -22.3 6 -24 6 C-23 3 -23 3 -20.8125 1.8125 C-17.74609689 0.92665021 -15.17561845 0.85229682 -12 1 C-11.67 2.32 -11.34 3.64 -11 5 C-10.113125 4.175 -9.22625 3.35 -8.3125 2.5 C-5.49744202 0.13855326 -3.75535725 -0.64377553 0 0 Z " fill="#D6E5DA" transform="translate(379,114)"/>
<path d="M0 0 C0.99 0 1.98 0 3 0 C3 2.97 3 5.94 3 9 C6.63 9 10.26 9 14 9 C14 9.99 14 10.98 14 12 C10.37 12 6.74 12 3 12 C3.11362874 15.93813307 3.24038724 19.87507674 3.375 23.8125 C3.4059375 24.93205078 3.436875 26.05160156 3.46875 27.20507812 C3.50742187 28.27822266 3.54609375 29.35136719 3.5859375 30.45703125 C3.6173584 31.44678955 3.6487793 32.43654785 3.68115234 33.45629883 C3.83773433 36.24075094 3.83773433 36.24075094 6 39 C7.97747122 39.36297936 7.97747122 39.36297936 10.125 39.1875 C11.40375 39.125625 12.6825 39.06375 14 39 C13.6875 40.9375 13.6875 40.9375 13 43 C10.11504794 43.96165069 8.01406646 44.22728086 5 44.3125 C4.13375 44.34988281 3.2675 44.38726562 2.375 44.42578125 C0 44 0 44 -1.63012695 42.38061523 C-3.42948703 39.2536218 -3.34199925 37.07994522 -3.29296875 33.484375 C-3.28330078 32.23398438 -3.27363281 30.98359375 -3.26367188 29.6953125 C-3.23853516 28.39335937 -3.21339844 27.09140625 -3.1875 25.75 C-3.17396484 24.43257812 -3.16042969 23.11515625 -3.14648438 21.7578125 C-3.11112551 18.50479679 -3.06177033 15.252604 -3 12 C-4.65 12 -6.3 12 -8 12 C-8 11.34 -8 10.68 -8 10 C-7.38640625 9.75507812 -6.7728125 9.51015625 -6.140625 9.2578125 C-3.57364433 7.74947715 -2.96142096 6.55743212 -1.75 3.875 C-1.41484375 3.15054688 -1.0796875 2.42609375 -0.734375 1.6796875 C-0.49203125 1.12539062 -0.2496875 0.57109375 0 0 Z " fill="#DBEADF" transform="translate(629,106)"/>
<path d="M0 0 C0.99 0 1.98 0 3 0 C3 2.97 3 5.94 3 9 C6.3 9 9.6 9 13 9 C13 9.99 13 10.98 13 12 C9.7 12 6.4 12 3 12 C3.1097257 15.93808228 3.24039131 19.87519589 3.375 23.8125 C3.4059375 24.93205078 3.436875 26.05160156 3.46875 27.20507812 C3.50742187 28.27822266 3.54609375 29.35136719 3.5859375 30.45703125 C3.6173584 31.44678955 3.6487793 32.43654785 3.68115234 33.45629883 C3.83773433 36.24075094 3.83773433 36.24075094 6 39 C7.97747122 39.36297936 7.97747122 39.36297936 10.125 39.1875 C11.40375 39.125625 12.6825 39.06375 14 39 C14 39.99 14 40.98 14 42 C9.59002713 44.27611503 4.87744001 44.8494418 0 44 C-1.61206055 42.89208984 -1.61206055 42.89208984 -3 41 C-3.34057617 37.99731445 -3.34057617 37.99731445 -3.29296875 34.36328125 C-3.28330078 33.06455078 -3.27363281 31.76582031 -3.26367188 30.42773438 C-3.23860585 29.05598361 -3.21321101 27.68423882 -3.1875 26.3125 C-3.1724502 24.92905076 -3.1587623 23.54558599 -3.14648438 22.16210938 C-3.11107223 18.77434793 -3.06168054 15.38736861 -3 12 C-4.65 12 -6.3 12 -8 12 C-7.67 11.01 -7.34 10.02 -7 9 C-6.01 8.67 -5.02 8.34 -4 8 C-2.76722873 6.13977928 -2.76722873 6.13977928 -1.8125 3.9375 C-1.46832031 3.20402344 -1.12414062 2.47054687 -0.76953125 1.71484375 C-0.51558594 1.14894531 -0.26164062 0.58304687 0 0 Z " fill="#DDECE1" transform="translate(339,106)"/>
<path d="M0 0 C2.1875 1.625 2.1875 1.625 4.1875 3.625 C4.50634766 6.23876953 4.50634766 6.23876953 4.6015625 9.5078125 C4.64023437 10.67441406 4.67890625 11.84101562 4.71875 13.04296875 C4.7496875 14.26628906 4.780625 15.48960937 4.8125 16.75 C4.85117187 17.98105469 4.88984375 19.21210938 4.9296875 20.48046875 C5.0241999 23.52849376 5.10975494 26.57650862 5.1875 29.625 C6.5075 29.955 7.8275 30.285 9.1875 30.625 C9.1875 31.615 9.1875 32.605 9.1875 33.625 C5.5575 33.625 1.9275 33.625 -1.8125 33.625 C-1.8125 32.305 -1.8125 30.985 -1.8125 29.625 C-2.4725 29.625 -3.1325 29.625 -3.8125 29.625 C-3.8125 28.965 -3.8125 28.305 -3.8125 27.625 C-3.1525 27.625 -2.4925 27.625 -1.8125 27.625 C-1.8125 23.335 -1.8125 19.045 -1.8125 14.625 C-2.8025 14.955 -3.7925 15.285 -4.8125 15.625 C-4.4825 15.08875 -4.1525 14.5525 -3.8125 14 C-2.14020065 10.02828905 -2.46942484 6.65422547 -3.8125 2.625 C-7.1125 2.625 -10.4125 2.625 -13.8125 2.625 C-13.8125 4.605 -13.8125 6.585 -13.8125 8.625 C-16.1225 8.625 -18.4325 8.625 -20.8125 8.625 C-21.16911218 4.22678306 -21.16911218 4.22678306 -19.8125 1.9375 C-14.28133644 -1.69232608 -5.96969098 -2.91851559 0 0 Z " fill="#DCEBE0" transform="translate(507.8125,115.375)"/>
<path d="M0 0 C5.61 0 11.22 0 17 0 C17 4.62 17 9.24 17 14 C11.39 14 5.78 14 0 14 C0 9.38 0 4.76 0 0 Z " fill="#25302F" transform="translate(91,100)"/>
<path d="M0 0 C5.61 0 11.22 0 17 0 C17 4.29 17 8.58 17 13 C11.39 13 5.78 13 0 13 C0 8.71 0 4.42 0 0 Z " fill="#232E2D" transform="translate(118,100)"/>
<path d="M0 0 C0 4.29 0 8.58 0 13 C-8.25524476 16.43968531 -8.25524476 16.43968531 -12 15 C-14 13 -14 13 -14.4375 10.125 C-14 7 -14 7 -11.9375 4.8125 C-4.13793103 0 -4.13793103 0 0 0 Z " fill="#1E2B2A" transform="translate(506,130)"/>
<path d="M0 0 C1.9375 1.6875 1.9375 1.6875 3 4 C3 5.65 3 7.3 3 9 C-1.95 9 -6.9 9 -12 9 C-11 3 -11 3 -9.375 1.125 C-6.0390086 -0.45520645 -3.64095721 -0.46339455 0 0 Z " fill="#1B2827" transform="translate(283,118)"/>
<path d="M0 0 C2 3 2 3 2 9 C-2.95 9 -7.9 9 -13 9 C-10.13518287 0.40554862 -8.77392173 -0.83561159 0 0 Z " fill="#1B2827" transform="translate(607,118)"/>
<path d="M0 0 C2.375 0.3125 2.375 0.3125 3.375 1.3125 C3.41592937 3.64547433 3.41741723 5.97955225 3.375 8.3125 C1.38932292 8.01953125 -0.59635417 7.7265625 -2.58203125 7.43359375 C-4.8275342 7.17345201 -4.8275342 7.17345201 -7.625 8.3125 C-3.98593609 0.4745162 -3.98593609 0.4745162 0 0 Z " fill="#DDECE1" transform="translate(376.625,113.6875)"/>
</svg>
